<?xml version="1.0" encoding="UTF-8"?>
<svg id="Calque_1" xmlns="http://www.w3.org/2000/svg" viewBox="0 0 344.35 245.86">
  <defs>
    <style>
      .cls-1 {
        fill: #f18929;
      }

      .cls-2 {
        fill: #8abf5a;
      }

      .cls-3 {
        fill: #cada7e;
      }

      .cls-4 {
        fill: #4a59a4;
      }

      .cls-5 {
        fill: #ef7d35;
      }

      .cls-6 {
        fill: #e7e459;
      }

      .cls-7 {
        fill: #396db4;
      }

      .cls-8 {
        fill: #cd3518;
      }

      .cls-9 {
        fill: #c778b0;
      }

      .cls-10 {
        fill: #f7b134;
      }

      .cls-11 {
        fill: #2face3;
      }

      .cls-12 {
        fill: #2a83c5;
      }

      .cls-13 {
        fill: #f8e74d;
      }

      .cls-14 {
        fill: #d1db5d;
      }

      .cls-15 {
        fill: #fccc3d;
      }

      .cls-16 {
        fill: #28bae9;
      }

      .cls-17 {
        fill: #fad53b;
      }

      .cls-18 {
        fill: #d25d18;
      }

      .cls-19 {
        fill: #f7b031;
      }

      .cls-20 {
        fill: #285ea9;
      }

      .cls-21 {
        fill: #f59f33;
      }

      .cls-22 {
        fill: #34bdec;
      }

      .cls-23 {
        fill: #9d4b97;
      }

      .cls-24 {
        fill: #636363;
      }

      .cls-25 {
        fill: #ea523a;
      }

      .cls-26 {
        fill: #784393;
      }

      .cls-27 {
        fill: #2a6bb4;
      }

      .cls-28 {
        fill: #c5d54d;
      }

      .cls-29 {
        fill: #e62a43;
      }

      .cls-30 {
        fill: #f6ed84;
      }

      .cls-31 {
        fill: #5ec3e0;
      }

      .cls-32 {
        fill: #88be45;
      }

      .cls-33 {
        fill: #a6c955;
      }

      .cls-34 {
        fill: #0e7f36;
      }

      .cls-35 {
        fill: #cd3031;
      }

      .cls-36 {
        fill: #b51351;
      }

      .cls-37 {
        fill: #6cb059;
      }

      .cls-38 {
        fill: #fbcb39;
      }

      .cls-39 {
        fill: #349ed9;
      }

      .cls-40 {
        fill: #ea5b1b;
      }

      .cls-41 {
        fill: #0c622e;
      }

      .cls-42 {
        fill: #f59d2e;
      }

      .cls-43 {
        fill: #2b953a;
      }

      .cls-44 {
        fill: #2b75bb;
      }

      .cls-45 {
        fill: #e8403c;
      }

      .cls-46 {
        fill: #ee7121;
      }

      .cls-47 {
        fill: #2a95d3;
      }

      .cls-48 {
        fill: #bc65a5;
      }

      .cls-49 {
        fill: #55ab3d;
      }

      .cls-50 {
        fill: #ec6a37;
      }

      .cls-51 {
        fill: #264e9d;
      }

      .cls-52 {
        fill: #6f6e6e;
      }

      .cls-53 {
        fill: #f8b143;
      }

      .cls-54 {
        fill: #b7d165;
      }

      .cls-55 {
        fill: #4a9c4d;
      }

      .cls-56 {
        fill: #8d4795;
      }

      .cls-57 {
        fill: #aecc52;
      }

      .cls-58 {
        fill: #2f4899;
      }

      .cls-59 {
        fill: #574394;
      }

      .cls-60 {
        fill: #faea48;
      }

      .cls-61 {
        fill: #3061ab;
      }

      .cls-62 {
        fill: #243988;
      }

      .cls-63 {
        fill: #ad549b;
      }

      .cls-64 {
        fill: #df085e;
      }

      .cls-65 {
        fill: #8bc04d;
      }

      .cls-66 {
        fill: #499835;
      }

      .cls-67 {
        fill: #6fb640;
      }

      .cls-68 {
        fill: #348bcb;
      }

      .cls-69 {
        fill: #f9e46f;
      }

      .cls-70 {
        fill: #6bb544;
      }

      .cls-71 {
        fill: #22afe5;
      }

      .cls-72 {
        fill: #f8be32;
      }

      .cls-73 {
        fill: #e5194d;
      }

      .cls-74 {
        fill: #c3163c;
      }
    </style>
  </defs>
  <path class="cls-54" d="M339.32,120.91c-.17,1.78-1.35,3.24-1.57,5-3.01,6.71-6.33,13.24-11.01,18.99-.4.49-.85.95-1.27,1.42-3.89,3.22-7.76,6.47-12.27,8.82-1.27.66-2.5,1.32-3.71-.08-.46-.92-.2-1.81.2-2.65,3.01-6.4,4.86-13.1,5.25-20.19.03-.56.21-1.08.44-1.59.83-1.46,1.09-3.11,1.53-4.7.45-1.63,1.44-2.72,3.08-3.22,5.28-1.6,10.84-1.63,16.18-2.9,1.14-.27,2.43-.2,3.15,1.1Z"/>
  <path class="cls-3" d="M309.97,155.25c2.04-.44,3.62-1.79,5.31-2.86,2.88-1.81,5.67-3.77,8.48-5.69.54-.37,1.01-.85,1.71-.38-.8,1.12-1.6,2.23-2.39,3.35-2.35,2.38-4.96,4.51-6.91,7.27-.69.83-1.34,1.7-2.37,2.17-.52.11-.85.45-1.1.89-.41.63-1.02,1.01-1.64,1.38-2.25,1.58-4.48,3.19-6.74,4.75-2.26,1.56-4.6,3-7.13,4.1-.72-1.39.24-2.27,1.07-3.07,3.4-3.31,6.54-6.83,9.24-10.75.55-.79,1.23-1.67,2.47-1.16Z"/>
  <path class="cls-31" d="M41.96,16.85c2.51-1.88,5.37-3.1,8.18-4.43,1.07,1.28.25,2.25-.6,3.12-1.5,1.53-2.88,3.04-3.03,5.38-.08,1.27-1.32,1.93-2.22,2.71-1.18,1.02-2.54,1.84-3.54,3.07-2.09,2.55-1.86,4.37-.12,7.03,2.3,3.51,4.54,7.17,4.5,11.64,0,.28-.12.61.02.82,3.54,5.2.85,11.36,2.63,16.93,1.06,3.31-.3,7.1-.57,10.67-.08,1.1-.24,2.2-.13,3.3.15,1.41.77,2.45,2.31,2.69.74.11,1.46.25,1.87,1,.54,1.29.05,2.54-.18,3.79-.87,4.93-1.1,9.86-.1,14.8.2,1,.45,1.99-.12,2.95-2.14,1.47-4.21,1.2-6.18-.3-5.59-4.25-9.14-9.93-11.84-16.26-.36-.85-.87-1.63-1.45-2.34-1.14-1.39-2.51-1.61-3.8-.34-1.98,1.93-4.17,3.59-6.2,5.46-3.08,2.83-6.4,5.2-10.81,5.5-1.64.11-3.2.8-4.82,1.15-1.94.42-2.35,2.05-2.57,3.8-.15,1.24.33,2.94-1.71,3.22-1.03-.47-1.28-1.42-1.5-2.4,1.28-8.16-.74-16.56,1.72-24.65.27-.87.39-1.8.66-2.67,1.61-2.97,1.46-6.38,2.36-9.53.17-.61.14-1.28.53-1.82.6-.82,1.51-1.02,2.44-1.09,2.34-.17,3.99-1.3,4.89-3.47.98-2.38-.67-3.76-2.06-5.23-.48-1.46.36-2.57,1.22-3.46.95-.98,1.45-2.08,1.78-3.33,2.82-3.96,5.31-8.18,9.01-11.45.41-.36.59-.93.81-1.44,3.59-3.56,6.88-7.44,10.94-10.52,2.36-1.79,5.2-2.73,7.69-4.31Z"/>
  <path class="cls-58" d="M26.32,154.32c-1.79-2.15-3.6-4.3-5.37-6.46-.34-.41-.58-.91-.87-1.36,1.41-1.48,2.6-.28,3.61.48,5.83,4.32,12.32,7.36,19.05,9.92.44.17.89.21,1.35.27,6.79,1.86,13.69,2.61,20.73,2.38,5.76-.19,11.3-1.28,16.74-3.08,5.46-.5,9.65-3.93,14.25-6.34,2.99-1.57,5.8-3.57,8.33-5.9.98-.9,2.09-1.85,3.58-1.94,4.82.65,8.29,3.85,11.99,6.5,5.24,3.75,10.34,7.67,16.28,10.31.76.34,1.42.87,2.07,1.38,1.84,1.45,2.1,2.92,1,5.07-.59,1.15-1.19,2.29-1.96,3.34-2.03,1.7-4.22,3.11-6.71,4.05-8.02,4.52-16.59,7.4-25.69,8.7-9.98,1.42-19.95,1.41-29.94-.09-2.35-.35-4.25-1.56-6.3-2.53l.03.02c-.48-.46-1.24,0-1.7-.53l-.17-.09-.19.04c-4.11-.98-8.34-1.64-11.84-4.31-10.05-4.49-18.97-10.63-26.82-18.34-.51-.47-.98-.99-1.46-1.49Z"/>
  <path class="cls-16" d="M50.62,80.51c-2.48,1.13-3.99.48-4.68-2.1-.39-1.44-.38-2.96-.06-4.39.67-2.99.45-6.05.83-9.06.26-2.11-.25-4.39-.94-6.5-.7-2.14-1.26-4.22.15-6.33.58-.87.21-1.71-.47-2.5-1.29-1.5-2.32-3.12-1.53-5.26.12-.32.1-.78-.05-1.08-1.71-3.31-2.18-7.3-5.4-9.77-1-.77-1.1-1.83-.87-3,.53-2.76,1.99-4.92,4.19-6.61.73-.56,1.45-1.15,2.21-1.65.98-.65,1.64-1.29,1.39-2.68-.25-1.4.86-2.33,1.71-3.31,1.07-1.23,2.67-2.05,3.04-3.83,2.72-1.86,5.8-2.97,8.82-4.18.6-.24,1.2-.43,1.72-.83.49-.55,1.26-.12,1.79-.52.63.11,1.06-.29,1.53-.6.63-.63,1.58.03,2.22-.54h.01c.46-.54,1.21-.12,1.71-.51l-.05.03c.68-.75,1.69-.12,2.44-.58.12.09.23.07.31-.06.65-.62,1.58.01,2.25-.53h-.02c.82-.75,1.95.06,2.8-.55,0,0,.01.02.01.02,2.74,0,5.4-.95,8.16-.66,1.13-.2,2.51-.89,3.14.53.53,1.18-.63,1.92-1.41,2.73-1.63,1.7-3.54,2.96-5.7,3.82-1.49.59-2.28,1.49-2.67,3.16-1.11,4.72-2.86,5.96-7.81,6-2.23.02-4.45.07-6.54.92-1.93.79-2.13,1.82-1.42,3.72,2.25,6,4.95,11.86,5.44,18.4.39,5.14.9,10.26.66,15.42-1.06,2.46-3.31,4.01-5.16,5.6-4.76,4.08-7.01,9.6-9.77,14.88-.51.97-.69,2.14-2.01,2.41Z"/>
  <path class="cls-17" d="M103.92,244.01c-1.06-.03-2.11-.07-3.17-.1-1.74.94-3.63.33-5.44.5-3.29-.38-6.58-.07-9.88-.07-5.27,0-10.31-1.57-15.27-3.27-.61-.46-1.22-.91-1.82-1.38-2.84-2.74-3.37-6.62-4.92-10.01-.19-.41-.42-.88-.38-1.32.21-2.45.24-4.81-1.4-6.94-.48-.62,0-1.57.24-2.39.7-2.51,2.35-4.57,4.14-6.07,3.09-2.58,5.4-5.72,7.88-8.77,2.79-3.44,5.75-6.64,10.36-7.61,1.23-.11,2.38.31,3.52.62,5.49,1.47,10.95,1.23,16.43-.07,1.23-.29,2.45-.92,3.77-.37,1.7,1.6.41,2.82-.81,3.5-2.34,1.3-3.68,3.2-4.6,5.61-.71,1.86-2.54,2.87-3.67,4.41-2.92,4-5.3,8.35-7.73,12.65-1.12,1.99-1.07,4.26.9,5.76,4.25,3.24,7.16,7.59,10.18,11.85.77,1.08,2.4,1.57,2.34,3.23-.18.24-.41.31-.69.22Z"/>
  <path class="cls-33" d="M280.03,177.6c-.89.13-1.79.26-2.68.39-2-.52-1.02-1.7-.4-2.5,1.39-1.77,2.43-3.78,4.23-5.29,1.59-1.34,2.53-3.3,3.28-5.27,1.29-1.64,3.21-2.06,5.06-2.57,3.03-.83,5.97-1.89,8.77-3.31,2.27-1.15,2.44-1.97.76-3.75-3.61-3.81-6.01-8.27-7.6-13.24-.72-2.26-2.61-3.75-3.96-5.59-2.86-3.88-4.86-8.16-6.06-12.83.03-1.12.76-1.85,1.46-2.57,3.49-3.6,6.26-7.69,8.43-12.21.54-1.12.94-2.48,2.52-2.66,3.87,2.31,6.96,5.57,10.25,8.58,4.37,4,7.6,9.09,12.19,12.89.35.29.47.78.6,1.22-.06.66.26,1.37-.29,1.96-.5.72-.51,1.54-.53,2.37-.17,6.7-2.09,12.95-4.84,19-.45,1-1.07,1.92-1.23,3.04-3.68,5.49-8.27,10.2-12.78,14.98-4.7,2.99-9.96,4.69-15.13,6.61-.68.25-1.35.5-2.03.76Z"/>
  <path class="cls-57" d="M190.86,245.53c-3.88-.82-7.61-1.98-10.74-4.55-4.86-3.98-8.12-8.86-8.71-15.27-.29-.78.17-1.38.76-1.54,3.01-.84,5.5-2.93,8.75-3.27,3.95-.41,6.88-3.37,10.55-4.63,6.13-2.09,11.56-5.68,17.34-8.53,1.58-.78,3-1.8,4.26-3.04.8-.79,1.7-1.58,2.92-1,1.08.52.61,1.64.62,2.49.04,5.35.02,10.69.02,16.04-.03.9.07,1.81-.09,2.71-.08.56-.16,1.12-.23,1.69-.26,1.59.39,2.79-1.47,4.55-1.51,2.37-2.61,4.98-4.62,7.04-3.55,3.63-7.69,6.12-12.77,6.92-.35.06-.68.24-1.02.37-1.85.5-3.71.45-5.57.03Z"/>
  <path class="cls-65" d="M216.46,222.28c-.04-4.87-.08-9.75-.12-14.62,0-.74.04-1.48-.05-2.2-.15-1.19-.82-1.48-1.62-.55-3.24,3.79-7.98,5.16-12.07,7.55-4.44,2.6-9.17,4.67-14.01,6.43-.59.21-1.15.57-1.66.95-1.89,1.4-3.99,2.24-6.34,2.46-.63.06-1.29.18-1.87.44-2.41,1.07-4.72,2.35-7.31,2.97-.13-.43-.38-.86-.39-1.3-.14-7.36-.31-14.72.05-22.07.3-.36.63-.78,1.07-.83,5.2-.61,9.25-3.75,13.67-6.09,1.31-.69,2.66-1.37,4.15-1.42,3.08-.1,5.57-1.58,8.2-2.95,3.25-1.7,6.74-2.96,10.17-4.26,4.11-1.56,6.62-4.13,6.84-8.66.05-.93.2-1.87,1.35-2.14.35,1.07.23,2.18.23,3.28.02,7.33.01,14.67.04,22,0,1.1.1,2.19.16,3.29-.23,5.86-.23,11.72-.11,17.59-.02.31-.14.38-.38.16Z"/>
  <path class="cls-72" d="M104.46,243.76c-2.96-.84-4.18-3.52-5.6-5.75-1.92-2.99-4.31-5.42-6.96-7.68-3.07-2.62-3.82-4.61-1.34-8.86.69-1.19,1.18-2.56,1.93-3.59,2.39-3.32,3.82-7.34,7.05-10.06,1.09-.92,1.79-2.07,2.28-3.39.79-2.15,2.04-3.86,4.2-4.87.98-.45,1.98-1.03,2.36-2.19-.04-1.5,1.12-2.04,2.19-2.54,6.4-2.96,11.1-7.77,14.9-13.57.61-.94,1.16-1.92,2.5-1.87,1.64,1.59.72,3.54.25,5.06-1.68,5.45-3.94,10.67-7.32,15.33-3.57,6.1-8.77,10.78-13.66,15.72-.97.98-.92,1.76.14,2.77,2.88,2.75,6.46,4.51,9.66,6.78,4.29,3.04,7.13,7.36,10.89,10.83.49.45.64,1.11.34,1.79-4.26,2.14-8.83,3.35-13.42,4.49-.53.13-1.09.15-1.51.56-.48.52-1.07.29-1.64.24-.62-.09-1.18.06-1.69.42-.52.35-1.08.22-1.64.13-.6-.11-1.18-.07-1.69.32-.75.48-1.48.54-2.2-.05Z"/>
  <path class="cls-68" d="M43.52,158.03c-5.35-1.13-10.19-3.51-14.87-6.23-2.29-1.33-4.44-2.91-6.64-4.4-.61-.41-1.13-.95-1.94-.91-.78-.58-1.45-1.25-1.63-2.26.35-2.6,2.24-4,4.3-4.99,4.42-2.13,8.27-5.09,12.26-7.87,5.27-3.66,9.62-8.4,14.84-12.1,2.08-1.47,4.39-2.25,6.86-2.7,2.03.09,2.96,1.77,4.04,3.03,1.57,1.83,3.42,3.3,5.22,4.85,1.22,1.93,3.75,2.58,4.71,4.77.18,1.42-.69,2.2-1.74,2.88-4.94,3.2-8.69,7.4-11.95,12.37-2.42,3.68-5.68,7.06-9.68,9.32-1.81,1.03-2.12,3.2-3.79,4.24Z"/>
  <path class="cls-1" d="M128.82,178.45c.12-.35.25-.7.37-1.06,3.72-.76,6.82-2.95,10.19-4.51.91-.42,1.73-1.02,2.8-.96,3.53.16,4.79,3.38,7.01,5.29.88.76,1.51,1.86,2.6,2.4,5.74,2.87,10.55,6.96,14.93,11.54,1.35,1.41,3.47,1.24,4.62,2.79.35.99.16,1.76-.87,2.2-1.95,3.7-3.64,7.54-5.94,11.05-1.05,1.59-2.01,3.24-3.39,4.6-2.45,1.72-4.47.75-6.43-.96-3.44-3.02-7.4-5.45-10.68-8.59-4.6-4.39-9.98-7.99-13.55-13.5-2.17-3.34-1.94-6.73-1.66-10.29Z"/>
  <path class="cls-5" d="M215.21,11.81c4.55-2.57,9.49-4.13,14.45-5.65.95-.29,1.99-.33,2.83-.95,1.84-.29,3.69-.59,5.53-.88,2.4-.28,3.84.87,5.1,2.88,3.64,5.83,6.85,11.9,10.47,17.74,1.34,2.16,1.36,4.32-.03,6.47-1.29,1.32-2.77,2.4-4.35,3.33-4.28,2.54-8.18,5.57-11.8,8.98-.97.92-1.86,2.17-3.53,1.43-.59-.56-.67-1.27-.6-2.03.18-1.82-.61-3.1-2.01-4.26-1.48-1.23-2.57-2.91-3.31-4.68-1.54-3.66-3.44-7.11-5.44-10.52-.75-1.28-1.29-2.65-1.71-4.06-.7-2.37-1.93-4.35-4.12-5.64-.81-.47-1.54-1.04-1.48-2.14Z"/>
  <path class="cls-42" d="M128.82,178.45c.82,1.7.42,3.64,1.03,5.39.15.43.04.97.26,1.34,2.27,3.86,4.43,7.84,8.38,10.3,1.19.74,2.26,1.47,3.11,2.62,1.26,1.7,2.78,3.17,4.66,4.22,1.21.68,2.27,1.56,3.15,2.64.41.5.8,1.03,1.44,1.24,1.55.51,2.65,1.62,3.73,2.76,1.78,1.89,3.83,3.13,6.56,2.83-3.84,5.55-8.42,10.4-13.85,14.42-3.06,1.31-4.92-.12-7.33-2.15-4.61-3.86-8.44-8.6-13.64-11.81-3.31-2.05-4.77-5.71-6.6-8.97-.67-1.19,0-2.5.23-3.75,1.47-3.34,3.63-6.34,4.91-9.78,1.23-3.32,2.98-6.49,3.13-10.15.14-.49.34-.94.84-1.17Z"/>
  <path class="cls-21" d="M252.84,31.14c1.48-3.06-.08-5.56-1.65-7.92-1.68-2.53-3.37-5.06-4.69-7.77-1.46-2.99-3.45-5.63-5.04-8.52-.73-1.32-1.96-2.17-3.43-2.61.37-.14.74-.28,1.11-.42.56-.21,1.2,0,1.73-.34.74.08,1.46.02,2.16-.23.75-.16,1.59.02,2.23-.59.52-.06,1.05-.13,1.55.11.4-.02.81-.03,1.21-.05,4.37-.32,8.74-.55,13.12-.02.41.02.82.04,1.23.06.74-.15,1.48-.39,2.16.16h-.02c.73.44,1.53.15,2.29.23.53.01,1.06-.03,1.58.07.55.49,1.22.52,1.9.48.49.08,1.12-.23,1.4.48.15.27.36.34.64.22.74-.09,1.53-.49,2.15.3-.01.13,0,.26.04.38,1.39,1.05,2.2,2.45,2.3,4.19.13,2.24.83,4.36,1.76,6.31,1.9,3.97,2.41,7.47-2.02,10.09-1.03.67-2.25.86-3.41.98-6.2.66-12.01,2.63-17.7,5.03-.92,0-1.91.26-2.6-.64Z"/>
  <path class="cls-19" d="M119.94,199.55c.46,3.08,2.21,5.56,3.81,8.11.98,1.57,2.12,3.02,3.76,3.93,2.09,1.17,3.66,3.05,5.82,4.12.16.08.36.19.42.34,1.85,4.28,6.94,5.36,9.17,9.26.35.61,1.02.78,1.7.58.94-.28,1.81-.13,2.65.32-5.78,4.76-11.96,8.85-19.04,11.43-2.33-2.08-4.8-3.99-6.38-6.82-.55-.98-1.68-1.7-2.66-2.37-3.17-2.19-5.85-5.06-9.46-6.65-1.79-.79-2.86-2.57-4.6-3.52-.87-.47-.77-1.44-.21-2.19.49-.66,1.1-1.24,1.68-1.83,4.48-4.51,9.23-8.78,12.68-14.21.14-.22.42-.35.64-.52Z"/>
  <path class="cls-70" d="M216.52,175.97c-.06.73-.17,1.46-.16,2.2.07,4.32-1.88,7.39-5.84,9.04-3.47,1.45-6.84,3.16-10.46,4.28-1.84.57-3.2,2.09-5.07,2.73-1.22.42-2.37.93-3.71.92-2.19,0-4.2.77-5.91,2.04-1.36,1.01-2.78,1.77-4.38,2.26-.43.13-.92.28-1.24.57-2.52,2.25-5.43,2.92-8.7,2.32,0-.22-.02-.45-.03-.68.6-3.18,1.89-6.12,3.13-9.09,1.18-2.8,2.27-5.62,3.24-8.5.41-1.21.78-2.49,2.16-3.02,4.07-1.46,8.36-2.07,12.51-3.23,1.95-.55,3.73-1.35,5.54-2.31,5.13-2.73,10.74-4.23,16.43-5.33,1.32-.25,2.82-.23,3.75,1.13.35.51.71,1.18-.46,1.15l-.24-.03c-.68.28-.4.94-.58,1.42.19.71.19,1.41-.02,2.12Z"/>
  <path class="cls-39" d="M56.81,117.14c-.52.74-1.34.86-2.13,1.13-1.92.66-3.53,1.85-5.23,2.94-2.49,1.58-4.08,4.18-6.77,5.45-.16.08-.35.18-.44.32-1.82,2.9-4.92,4.28-7.52,6.21-3.51,2.6-6.97,5.39-11.12,7-.98.38-1.73,1-2.46,1.71-.85.83-1.6,1.78-2.7,2.33-.34-.29-.77-.53-1.01-.89-2.68-3.98-5.28-8.01-7.14-12.46.99-1.12,2.31-1.95,3.59-2.46,7.55-3.02,13.23-8.95,20.24-12.79,1.48-.81,2.46-2.17,3.55-3.43,2.67-3.11,5.46-6.11,10.19-5.41,1.36.07,2.16.98,2.75,2.02,1.13,2,2.74,3.39,4.84,4.27,1.2,1.1,2.12,2.3,1.37,4.06Z"/>
  <path class="cls-11" d="M47.95,107.62c-4-.08-6.81,2.13-9.03,5.06-2,2.64-4.47,4.58-7.31,6.17-3.21,1.8-6.11,4.06-9.1,6.19-2.25,1.6-4.4,3.36-7.15,4.07-.93.24-1.65.81-2.3,1.47-.85.87-1.78.83-2.77.29-1.08-2.03-2.67-3.78-3.27-6.07-.6-.43-.12-1.23-.58-1.72v.02c-.59-.41-.08-1.21-.58-1.65h0c-.35-.34-.29-.75-.2-1.16,1.3-2.21,3.09-3.67,5.55-4.66,4.55-1.84,8.57-4.68,12.13-8.04,3.65-3.45,7.74-6.14,12.36-8.02,4.95-2.02,4.98-1.98,8.53,1.86.69.75,1.54,1.34,2.17,2.11.94,1.16,2.34,2.22,1.55,4.07Z"/>
  <path class="cls-10" d="M276.15,25.07c.25-.37.42-.9.77-1.09,2.16-1.16,2.17-2.85,1.52-4.91-.42-1.32-1.09-2.51-1.55-3.8-1.17-3.28-1.53-6.74-2.38-10.09.37-.04.75-.08,1.12-.12.73-.33,1.22.02,1.64.58,3.66.67,7.01,2.31,10.56,3.29,3.63.83,6.72,2.82,9.92,4.59.58.56,1.15,1.14,2.04,1.16,1.05.44,2.12.86,2.96,1.69h-.13c.26.17.47.39.66.65.91,1.42,1.39,2.92,1.21,4.65-.45,4.22-1.64,5.43-5.98,5.94-6.4-.58-12.78-1.52-19.24-1.25-1.15.05-2.46.09-3.11-1.27Z"/>
  <path class="cls-66" d="M179.75,181.81c-1.44,2.69-2.05,5.69-3.24,8.48-1.66,3.88-3.09,7.85-5.47,11.38-.51-1.8.11-3.72-.58-5.51.16-.7.33-1.4.49-2.11-.77-1.36-.26-2.68.17-3.99,1.6-4.81,2.77-9.73,3.63-14.72.07-.72.33-1.38.71-2,.76-.98.8-2.24,1.26-3.34.37-.97.49-2.02.94-2.97.89-.98.88-2.39,1.65-3.43.2-.18.43-.3.7-.35.27.01.52.09.75.24.77,1.7,2.2,2.81,3.58,3.97.23.41.47.88.36,1.29-1.28,4.48-1.69,9.3-4.96,13.03Z"/>
  <path class="cls-72" d="M100.52,244.34c-1.81,0-3.61.01-5.42.02-.07-.15-.15-.3-.25-.43,1.97,0,3.93-.01,5.9-.02-.1.13-.17.28-.23.44Z"/>
  <path class="cls-24" d="M279.48,185.91c-.05-.05-.16-.1-.16-.14,0-.22.12-.29.3-.17.05.03.08.16.05.21-.02.05-.13.07-.19.11Z"/>
  <path class="cls-60" d="M324.35,36.13c.57.58,1.13,1.15,1.7,1.73,3.4,1.56,4.86,4.54,5.78,7.92-.41,4.49-3.2,8.29-3.72,12.76-1.03,1.17-1.58,2.39-.99,4.02.57,1.59.1,3.06-.98,4.34-.35.42-.85.81-.98,1.32-1.25,4.92-5.08,7.78-9.16,9.55-3.83,1.65-8.07,3.48-12.58,2.06-.81-.25-1.59-.36-2.42-.39-1.99-.08-3.78-.79-5.19-2.18-1.15-1.13-2.46-1.9-3.95-2.42-2.01-1.34-2.61-3.68-3.88-5.55-2.76-4.04-6.06-7.53-10.09-10.32-1.33-.92-2.95-1.58-3.32-3.44,0-2.27,1.87-3.55,2.97-5.16,1.37-2.01,2.67-4.13,4.82-5.61,1.91-1.32,2.14-3.96,3.75-5.71,3.02-3.3,6.58-6.17,8.67-10.28.47-.92,1.51-1.29,2.64-1.17,1.3.13,2.58.02,3.8-.49,5.58.44,10.36,3.05,15.09,5.7,2.57,1.44,5.13,2.84,8.07,3.35Z"/>
  <path class="cls-14" d="M316.58,130.85c0-.73,0-1.47,0-2.2-1.74-2.09-1.39-4.73-1.61-7.11-.71-7.65-2.66-14.94-5.56-22.02-.48-1.18-1.15-2.36-.18-3.61.47-.36,1.08-.59,1.55-.34,2.67,1.41,5.38.63,8.12.35,5.4-.55,10.86-.61,16.24-.33,2.98.16,6.35.79,8.83,3.13.13,1.13.16,2.25-.11,3.36-.87,5.41-1.75,10.82-3.46,16.05-.31.95-.72,1.87-1.08,2.8-1.86-.09-3.63.22-5.43.74-1.82.52-3.68,1.07-5.68.6-1.06-.25-2.18.26-3.21.63-1.46.53-2.84,1.15-4.5,1.1-1.39-.04-2.33.92-2.75,2.31-.46,1.51-.63,3.05-.66,4.62,0,.07-.1.14-.15.21-.13-.09-.25-.19-.38-.28Z"/>
  <path class="cls-38" d="M308.3,20.57c6.06,4.46,11.57,9.48,16.05,15.56-1.9.79-3.78.73-5.51-.38-5.5-3.53-11.42-6.09-17.7-7.85-.94,0-2.08.38-2.25-1.14,1.22-.33,2.67-.4,3.28-1.72.88-1.93,1.45-3.96.99-6.13"/>
  <path class="cls-47" d="M103.93,3.55c7.33.92,14.37,2.81,21.05,6,1.33,1.13.61,2.28-.48,2.53-6.24,1.44-10.23,6.39-15.25,9.68-2.39,1.57-4.93,2.8-7.34,4.3-3.32,2.07-4.55,4.53-3.76,8.37,1.07,5.18-.95,9.96-1.95,14.86-.1.51-.53.96-1.01,1.28-.42.2-.88.25-1.34.26-1.71-.01-3.41,0-5.07.46-1.05.22-2.1.4-3.17.48-1.66-.07-3.37,1.04-4.99-.16-1.72-1.54-.59-3.68-1.08-5.5-.4-1.49-.51-3.06-.96-4.57-.59-1.94-.61-3.89-.54-5.96.14-3.73-.05-7.52-1.14-11.17-1.42-4.75.76-7.32,5.56-6.22,3.22.74,5.51.14,7.79-2.38,3.51-3.87,7.77-6.98,11.89-10.2.74-.58,1.3-1.29,1.8-2.07Z"/>
  <path class="cls-50" d="M215.21,11.81c3.9,1.37,6.14,4.15,7.11,8.12.69,2.82,2.62,5.06,3.91,7.6.87,1.72,1.74,3.44,2.52,5.21.96,2.2,2.12,4.25,4.14,5.72,1.47,1.07,1.96,2.63,1.68,4.41-.11.73-.33,1.44-.5,2.15.74,1.27-.14,2.08-.86,2.91-3.58,4.11-6.78,8.49-9.43,13.27-.54.97-1.12,1.97-2.53,1.7-.92-.78-.92-1.77-.53-2.77.76-1.95.18-3.5-1.51-4.52-2.71-1.63-4.49-4.05-6.05-6.68-.97-1.63-2.63-2.57-3.77-4-2.24-2.8-4.33-5.65-5.54-9.14-1.22-3.5-4.03-6.12-5.93-9.27-.6-.99-1.1-1.89-.9-3.06,5.4-4.92,11.47-8.8,18.19-11.66Z"/>
  <path class="cls-71" d="M103.93,3.55c1.6,1.36,1.63,1.41.06,2.45-4.77,3.16-9.29,6.75-13.03,10.99-2.71,3.08-5.33,3.42-8.77,2.43-.61-.18-1.28-.31-1.9-.25-2.34.22-3.18,1.51-2.51,3.77,1.41,4.72,1.95,9.51,1.33,14.42-.18,1.41.4,2.72.78,4.04.36,1.24.54,2.51.8,3.77.42,2.04.31,4.01-.02,6.01-.04.11-.08.22-.11.32-.28.37-.63.67-1,.94-.19.14-.39.25-.6.35-.52.26-1.07.49-1.58.79-2.61,1.17-5.25,2.25-7.64,3.85-.91.61-1.91,1.23-2.98.21-.89-4.82-.3-9.74-1.09-14.57-.58-3.52-.56-7.15-2.35-10.41-.89-1.61-1.4-3.4-1.67-5.25-.17-1.19-.73-2.23-1.52-3.2-1.65-2.02-1.26-3.69,1.05-4.89,1.91-.99,3.98-1.44,6.14-1.43.92,0,1.85,0,2.77,0,3.7-.02,5.59-1.68,5.8-5.42.09-1.49.53-2.6,1.88-3.04,2.96-.97,5.41-2.67,7.67-4.74.33-.31.89-.51.83-1.01-.09-.72-.76-.66-1.3-.71-.37-.04-.74-.05-1.1-.07,5.23-.83,10.45-.62,15.67.08,1.06.58,2.28-.08,3.35.44.35.04.7.08,1.05.12Z"/>
  <path class="cls-12" d="M95.02,49.97c.81-3.4,1.01-6.91,2-10.29.52-1.79.35-3.66-.33-5.44-.41-1.08-.09-2.11-.01-3.2.24-3.47,2.06-5.22,5.17-6.51,3.99-1.65,7.41-4.37,10.87-6.94,1.03-.77,2.07-1.52,3.05-2.37,2.32-1.98,4.79-3.76,8.01-4,1.03-.08,1.51-.6,1.2-1.67,2.78.76,5.1,2.43,7.6,3.75,3.93,2.07,3.88,3.09,6.23-1.61,6.14-12.29,23.28-15.36,33.2-6.98.25,1.54-.82,2.15-1.93,2.72-7.76,1.6-15.47,3.33-22.4,7.47-4.07,2.43-8.44,4.06-13.25,4.36-1.98.13-3.59,1.37-5.33,2.2-6.08,2.91-11.43,7.04-17.31,10.29-.92.51-1.15,1.25-1.27,2.25-.7,5.75-2.4,11.28-3.81,16.88-.27,1.07-1.07,1.68-2.01,2.14-.89.43-1.72.17-2.53-.23-.64-.31-1.4-.23-2.03-.61-1.52-.38-3.11-.44-4.57-1.06-.37-.29-.57-.66-.55-1.14Z"/>
  <path class="cls-25" d="M197.02,23.47c3.38,4.55,7.13,8.81,9.04,14.35,1.01,2.95,3.26,5.33,5.53,7.48.94.89,1.91,1.71,2.57,2.83,1.6,2.73,3.61,5.04,6.28,6.83,2.25,1.51,2.48,2.64,1.6,5.18-.3.87-.72,1.7-.68,2.65.95.89.66,1.82.01,2.7-1.41,1.91-2.08,4.06-2.15,6.42-.64,1.51-.93,3.15-1.69,4.61-.46.89-.88,1.83-2.04,2.03-2.01-.52-3.23-2.13-4.37-3.61-2-2.6-4.55-4.86-5.58-8.14-.2-.64-.73-1.05-1.25-1.43-2.03-1.49-3.81-3.16-4.61-5.67-.25-.79-.96-1.32-1.61-1.86-4.02-3.3-6.98-7.75-11.51-10.5-.42-5.1-.26-10.14,1.39-15.04,2.44-3.54,5.69-6.25,9.06-8.83Z"/>
  <path class="cls-48" d="M181.5,28.97c.08,3.33.15,6.66.23,9.99.65.99.58,2.12.54,3.21-.26,6.51.46,13.02-.46,19.54-.56,3.98.18,8.08-.31,12.1-.87,1.33-1.49.65-1.94-.32-.47-1.02-.48-2.15-.49-3.26-.03-3.96-.05-7.92,0-11.88.04-2.91-1.07-4.97-3.82-6.07-4.21-1.69-7.67-4.71-11.8-6.57-2.32-1.04-4.85-1.51-6.9-3.33-1.77-1.57-3.35-3.09-4.05-5.39-.92-2.19,1.13-3.59,1.44-5.46,1.32-3.51,3.33-6.66,5.1-9.94.6-1.12,1.59-2.01,3.06-1.96,4.61,2.77,9.99,3.62,14.82,5.89,1.82.85,3.22,2.08,4.59,3.45Z"/>
  <path class="cls-35" d="M187.96,32.3c.1,3.27.26,6.53-.26,9.8-.3,1.87-.09,3.81-.11,5.72,1.41,1.15,1.23,2.78,1.24,4.31.04,7.59-.81,15.15-.59,22.74-.3,3.71-.57,7.41-.54,11.14,0,1.24.12,2.58-.95,3.57-2.78.77-4.8-.22-5.55-2.81-1.15-3.95-1.72-7.94-.28-11.95.29-.82.29-1.63.26-2.45-.4-10.59.87-21.15.57-31.74-.02-.54-.1-1.11.29-1.59,1.85-2.36,3.57-4.84,5.94-6.74Z"/>
  <path class="cls-74" d="M182.02,39.05c0,1.38-.01,2.76,0,4.14.05,10.75-.8,21.49-.61,32.25.05,2.64-.44,5.23-.09,7.94.43,3.29,1.84,5.28,5.06,5.97,1.71.98,1.42,2.69,1.18,4.11-.31,1.79-.33,3.53-.09,5.3-.35,5.87-.54,11.76-1.02,17.62.08,2.42.46,4.9-1.18,7.03-.14.11-.28.25-.45.31q-4.28,1.65-4.29,6.29c-.05,9.54-.95,19.05-1.27,28.58-.13,3.87-1.09,7.74-1.76,11.6-.09,1.34-.41,2.61-1.07,3.78-1.3-2.54-1.36-5.29-1.06-8.01.45-4.21.64-8.44.81-12.66.24-6.25.88-12.48.75-18.74.48-2.23.65-4.46.53-6.77-.3-5.86.53-11.68.81-17.53.06-1.24.13-2.36-.74-3.34-.65-1.01-.56-2.15-.56-3.27,0-1.57.48-3.08.88-4.55.95-3.49,1.17-6.98.74-10.54.48-3.97,1.22-7.91.97-11.94-.06-.95.41-1.75.96-2.5.49-1.89.35-3.83.4-5.75.23-9.17.42-18.34.63-27.51.01-.64.13-1.27.19-1.91.11-.02.21,0,.29.08Z"/>
  <path class="cls-9" d="M181.5,28.97c-.62-.13-1.4-.06-1.84-.41-2.41-1.91-5.54-2.29-8.1-3.89-1.72-1.07-3.89-.74-5.75-1.66-1.51-.75-2.93-1.45-3.79-2.97-1.01-2.12.73-3.26,1.77-4.53.63-.76,1.37-1.46,1.95-2.29,1.84-1.73,3.55-3.59,5.6-5.12,1.11-.82,2.21-1.16,3.53-.98,4.25,4.41,6.55,9.67,6.73,15.8.06,2.01-.07,4.03-.11,6.05Z"/>
  <path class="cls-27" d="M174.88,7.13c-3.09,1.93-5.56,4.62-8.43,6.82-2,.57-3.58,2.94-6.08,1.43-.78-1.36.18-2.2.91-3.15,2.23-2.87,5.53-4.2,8.53-5.95.73-.52,1.47-1.05,2.2-1.57,1.23.47,2.05,1.44,2.86,2.42Z"/>
  <path class="cls-47" d="M102.88,3.44c-1.15.1-2.31.3-3.35-.44,1.16-.16,2.28-.05,3.35.44Z"/>
  <path class="cls-22" d="M50.15,102.61c.95,3.93,2.27,7.7,4.54,11.09-.94.38-1.34-.41-1.82-.9-1.67-1.7-3.29-3.45-4.93-5.18-1.81-2.33-3.59-4.67-5.43-6.97-1.49-1.87-2.82-2.09-4.74-.77-.77.53-1.49,1.08-2.46,1.13-.18.01-.39.02-.54.11-3.31,2.14-6.97,3.8-9.78,6.63-3.88,3.91-8.41,6.85-13.35,9.16-1.35.63-2.73,1.04-3.65,2.3-.52.71-1.29,1.01-2.14,1.13-.19-.18-.37-.36-.56-.54-.03-.61-.04-1.23-.45-1.74-.86-4.03-2.04-7.99-2.62-12.08-.18-1.27-.48-2.52-.35-3.82.04-1.38.02-2.76.13-4.13.2-2.46,1.5-3.85,3.89-4.25,2.26-.37,4.5-.9,6.72-1.38,2.89-.62,5.42-2.3,7.51-4.41,2.26-2.29,4.92-4.11,7.2-6.39,1.61-1.62,2.94-1.37,4.53.27,1.03,1.07,1.81,2.3,2.36,3.69,1.58,3.95,3.7,7.66,6.28,10.98,2.13,2.74,4.48,5.7,8.6,5.72.35,0,.69.23,1.04.35Z"/>
  <path class="cls-31" d="M5.91,61.12c.19-1.54.29-3.09.6-4.61.5-2.54,2.5-3.93,4.39-5.38,2.6.72,3.26,1.53,3.25,3.96-.02,4.21-3.53,6.78-8.24,6.03Z"/>
  <path class="cls-59" d="M136.12,168.09c.45-1.14,1.64-1.69,2.12-2.84.75-1.79.69-2.74-.97-3.76-2.49-1.53-5.09-2.89-7.7-4.22-1.32-.67-2.47-1.53-3.67-2.37-5.92-4.13-11.34-9.05-18.15-11.83-.79-1.71.63-2.5,1.51-3.47,3.08-3.41,6.1-6.85,7.98-11.13.3-.67.86-1.38.69-2.06-.59-2.28.61-4.06,1.43-5.97,1.44-1.95,3.03-3.8,4.45-5.77.49-.54.89-1.15,1.24-1.8.29-.47.65-.85,1.12-1.14,4.54-2,4.32-1.74,8.54,1.62,3.14,2.5,6.25,5.08,9.51,7.44,5.25,3.81,10.58,7.53,15.75,11.46.59.45,1.14.98,1.8,1.26,3.07,1.35,3.92,3.85,3.76,6.92-1.85,4.51-5.15,7.97-8.32,11.52-5.29,5.99-11.09,11.42-17.82,15.78-1.02.66-2.05,1.3-3.24.35Z"/>
  <path class="cls-7" d="M72.84,130.48c1.92.91,3.77,2,5.96,2.12,1.92.47,3.96.28,5.8,1.18.9.44,1.76-.12,2.63-.35,2.68-.7,5.36-.86,8.02.11.83.75.61,1.57-.16,2.07-1.34.87-1.98,2.19-2.42,3.56-1.49,4.6-3.86,8.9-4.71,13.7-.3,1.71-1.46,2.46-2.7,3.21-.93.56-2.04.79-2.96,1.41-2.98,1.56-6.28,2.09-9.51,2.58-9.15,1.39-18.27,1.3-27.27-1.22-.7-.19-1.47-.22-2.01-.8-.36-2.61,1.18-4.19,3.17-5.3,1.23-.69,2.27-1.53,3.24-2.5,1.62-1.62,3.25-3.23,4.85-4.87.51-.52,1.11-1.05,1.39-1.69,1.24-2.83,3.54-4.9,5.19-7.42.52-.8,1.31-1.24,2.06-1.77,2.3-1.62,4.81-2.98,6.68-5.15,1.19-.28,1.97.43,2.74,1.14Z"/>
  <path class="cls-4" d="M82.3,157.47c.11-.15.18-.37.32-.44,3.07-1.38,3.94-4.01,4.78-7.07,1.28-4.73,3.3-9.27,4.96-13.9.58-1.62,2.18-1.06,3.22-1.66.24-1.32,1.27-1.67,2.38-1.93,7.48-1.73,14.17-4.91,19.53-10.57.77-.81,1.67-1.83,3.02-.83-.13.55-.38,1.05-.8,1.42-.86.75-1.19,1.54-.56,2.65.42.75.28,1.64-.09,2.41-1,2.07-1.9,4.18-3.24,6.08-2.41,3.39-5.34,6.31-8.08,9.41-5.55,4.57-11.29,8.85-17.94,11.75-2.44,1.06-4.8,2.35-7.5,2.66Z"/>
  <path class="cls-18" d="M136.12,168.09c4.85-2.53,8.99-6.02,13.02-9.64,2.52-2.26,4.89-4.71,7.33-7.07,2.6-.63,4.34.83,6,2.47.84,2.23-1.09,3.27-2.02,4.76-.55.88-1.39,1.45-2.09,2.18-3.69,4.11-7.93,7.61-12.4,10.83-1.18.85-2.62.76-3.86,1.33-3.29,1.64-6.56,3.31-9.87,4.91-1.07.52-2.25,1.15-3.04-.46.24-1.92,1.58-3.59,1.27-5.63,1.71-1.5,4.04-2.04,5.66-3.67Z"/>
  <path class="cls-49" d="M179.75,181.81c.72-3.63,1.98-7.1,3.13-10.6.4-1.23.87-2.43.86-3.76-.13-.44-.42-.83-.42-1.3,0-2.25,4.8-7.78,7.03-8.01,5.75-.58,11.43-1.25,16.85-3.57,5.95-2.53,12.33-3.58,18.71-4.44,3.54-.47,6.44-1.99,8.85-4.56.58-.27,1.14-.22,1.7.06,4.8,4.33,10.11,8.01,15.21,11.98,1.35,1.98.78,3.58-.86,5.11-2.27,2.12-4.93,3.69-7.81,4.6-5.62,1.77-11.14,3.83-16.74,5.66-2.36.77-4.67.81-7.05.3-.69-.12-1.3-.38-1.84-.83-.16-1.4-1.31-1.07-2.12-1.11-1.67-.09-3.35.28-4.87.85-2.51.95-5.08,1.68-7.63,2.45-2.04.62-4.02,1.34-5.65,2.81-.7.63-1.6.87-2.51,1.09-3.49.87-6.98,1.75-10.45,2.67-1.43.38-2.96.03-4.36.58Z"/>
  <path class="cls-67" d="M219.2,173.29c5.89-1.04,11.49-3.07,17.02-5.27.78-.31,1.58-.45,2.37-.65,4.41-1.11,8.48-2.89,11.88-6.04,1.21-1.12,1.25-2.11.22-3.28.71-.89,1.68-.85,2.49-.41,4.22,2.29,9.03,3.05,13.3,5.23,2.28,1.86,2.75,3.3,1.12,5.06-7.41,8.03-16.34,12.64-27.59,11.75-5.42-.48-10.52-2.22-15.61-3.98-1.8-.62-3.61-1.29-5.2-2.4Z"/>
  <path class="cls-32" d="M240.01,179.66c4.9,0,9.34-1.84,13.79-3.57,1.97-.76,3.93-1.63,5.73-2.72,2.84-1.72,5.25-4.01,7.41-6.53,1.16-1.35.29-2.36-.75-3.27.18-.3.44-.53.75-.68,5.28-.06,10.52.66,15.8.66,1.04,0,1.91.57,2.3,1.65.07,2.86-1.62,4.85-3.58,6.53-1.85,1.58-2.47,4.04-4.37,5.53-.06.05.17.47.26.72-4.26,1.59-8.77,2-13.22,2.59-7.53,1-15.06.74-22.56-.42-.53-.08-1.04-.32-1.56-.49Z"/>
  <path class="cls-49" d="M216.54,173.86c-.2-.63-.05-1.12.58-1.42-.19.47-.38.95-.58,1.42Z"/>
  <path class="cls-13" d="M56.7,192.89c2.91-1.57,5.44-3.71,8.16-5.57,2.55-1.75,2.54-1.77,4.64.21,3.52,4.42,7.99,7.5,13.25,9.48.43.16.84.37,1.26.56-.11.14-.2.37-.35.42-5.39,1.7-8.13,6.24-11.2,10.43-.76,1.04-1.54,2.1-2.64,2.81-2.28,1.47-3.69,3.78-5.46,5.72-.83.92-1.25,2.24-1.72,3.44-.42,1.07.4,1.67,1.13,2.28,1.67,1.38,1.71,1.42.67,3.45-.7,1.37-.15,2.58.4,3.69.78,1.58,1.47,3.14,1.62,4.93.15,1.79,1.74,2.78,2.49,4.23-1.8,1.4-3.14.31-4.49-.81-1.61-2.77-2.83-5.73-3.99-8.72-1.14-2.94-3.82-4.36-6.25-5.97-.83-.55-1.82-.87-2.55-1.6-4.59-4.62-9.66-8.74-14.09-13.53-.96-1.95-.14-3.37,1.42-4.52,4.44-3.29,8.97-6.44,13.6-9.47,1.29-.84,2.87-.61,4.11-1.45Z"/>
  <path class="cls-2" d="M263.39,133.73c5.34-1.63,10.48-3.67,14.96-7.11,1.3-1,2.58-2.02,3.87-3.03,2.44,5.34,4.53,10.88,8.77,15.18.93.94,1.45,2.06,1.85,3.33,1.48,4.69,3.74,8.94,7.26,12.45,2.69,2.68,2.53,3.69-.82,5.48-2.04,1.09-4.2,1.9-6.38,2.65-2.61.89-5.25,1.7-7.88,2.54-2.97-.72-6-.55-9.02-.53-3.13.02-6.19-.45-9.24-1.12-.52-.52-1.2-1.01-1.13-1.81.36-4.45-1.86-8.36-2.68-12.57-.79-4.05-1.01-8.15-1.81-12.18-.2-1.02-.24-2.02.6-2.82h0c.47-.44,1.17-.05,1.65-.45Z"/>
  <path class="cls-28" d="M293.86,106.42c.88-3.95,2.01-7.84,2.23-11.92.29-5.49-.34-10.85-2.17-16.05-.21-.6-.33-1.24-.49-1.86.93-.69,1.77-.24,2.55.27,6.4,4.19,10.11,10.55,13.62,17.05.37.68.32,1.43-.19,2.09.95,2.4,1.97,4.77,2.84,7.19,2.02,5.66,3.35,11.46,3.91,17.47.25,2.67.47,5.31.42,7.99-1.98-.85-3.79-1.94-4.94-3.84-.7-1.16-2.25-1.2-2.93-2.44-3.01-5.45-8.1-8.9-12.6-12.91-.97-.86-2-1.66-2.26-3.04Z"/>
  <path class="cls-52" d="M72.84,130.48c-.94-.31-1.71-1.04-2.74-1.14-1.53-1.48-3.57-2.33-4.96-3.99,3.18.79,5.3,3.18,7.7,5.13Z"/>
  <path class="cls-46" d="M142.1,172.95c3.54-2.91,7.42-5.37,10.79-8.52,1.53-1.43,2.96-3.02,4.72-4.2.91-.18,1.85-.31,2.68.22,4.63,2.95,9.81,4.97,14.11,8.49,2.24,1.83,1.96,4.14,1.53,6.53-.86,6.41-2.43,12.62-4.98,18.58-2.19.25-3.79-.66-5.33-2.22-4.27-4.32-8.86-8.22-14.34-11.02-2.55-1.3-4.07-3.89-6.01-5.94-.91-.96-1.72-1.92-3.17-1.92Z"/>
  <path class="cls-53" d="M246.86,50.65c-1.03.68-2.27.72-3.41,1.05-7.82,2.27-14.44,6.39-19.66,12.68.12.23.18.47.17.73-.42,1.07-1.35,1.83-1.74,2.93-1.36,1.23-1.58,3.81-4.19,3.56.24-2.2,1.31-4.1,2.19-6.06.4-.9.76-1.82,1.14-2.74,1.28-1.47,1.92-3.31,2.92-4.94,2.84-4.61,6.22-8.78,9.79-12.82,2.32-1.67,4.15-3.88,6.37-5.69,3.87-3.16,8.06-5.78,12.4-8.2.76-.17,1.53-.33,2.29-.5.42.61.3,1.23-.02,1.82-3.02,5.45-5.65,11.07-7.45,17.06-.13.44-.52.75-.8,1.12Z"/>
  <path class="cls-15" d="M246.86,50.65c-.77-2.7.19-5.09,1.51-7.32,1.28-2.15,2.4-4.35,2.99-6.77.46-1.85,1.26-3.4,2.73-4.63.41-.34.69-.85,1.03-1.28,6.63-3.27,13.7-4.92,21.02-5.58,2.3,0,4.6.11,6.89,0,5.37-.25,10.61.66,15.84,1.69.75.38,1.5.76,2.25,1.14-.72.51-1.55.59-2.38.52-1.76-.16-2.87.52-3.76,2.12-1.47,2.64-3.3,4.98-5.77,6.93-1.88,1.49-3.54,3.48-4.3,5.95-.25.8-.58,1.64-1.29,2.08-2.76,1.71-4.28,4.44-6.02,7.01-.72,1.06-1.64,1.97-2.47,2.95-3.26-1.47-6.47-3.07-9.96-3.96-4.95-1.25-9.95-1.69-15.03-1.14-1.09.12-2.2.18-3.29.27Z"/>
  <path class="cls-43" d="M235.16,145.81c-.64,3.07-3.17,4.27-5.68,4.89-4.36,1.07-8.89,1.47-13.27,2.46-3.76.85-7.46,2.02-11.02,3.54-2.57,1.09-5.17,1.94-8,1.88-1.12-.02-2.2.18-3.25.55-.87.3-1.76.67-2.69.37-1.41-.47-2.29.05-2.89,1.33-.23.49-.49,1.12-.92,1.35-2.15,1.15-2.75,3.33-3.7,5.29-3.09-.22-3.24-.39-3.37-3.84-.92-2.23-.37-3.6,1.98-3.86,2.19-.24,3.08-1.17,3.13-3.3.05-1.91,1.5-3.3,2.1-5.04,1.69-4.86,3.42-9.7,5.34-14.48.89-2.22,2.3-3.48,4.8-3.24,2.14.21,3.92-.86,5.72-1.73,4.05-1.96,8.03-4.05,12.43-5.19,2.44-.63,4.79-1.27,7.18.01,1.34.5,1.81,1.75,2.42,2.86,2.57,4.67,5.38,9.18,8.83,13.26.7.83,1.57,1.64.85,2.9Z"/>
  <path class="cls-34" d="M222.99,127.56c-2.42-.73-4.7-.1-7.02.57-3.65,1.05-7.11,2.51-10.46,4.28-1.62.86-3.36,1.51-5.03,2.28-.95.44-1.87.58-2.94.39-2.02-.35-2.39-.13-3.15,1.74-1.07,2.65-2.05,5.33-3.04,8.01-1.02,2.76-1.87,5.6-3.07,8.29-.81,1.83-1.49,3.62-1.84,5.61-.4,2.28-.86,2.46-3.21,2.24-2.09-.2-2.29-.01-2.87,2.66-.2-.02-.39-.04-.59-.07-.91-.58-1.15-1.48-.86-2.4,1.41-4.44,2.08-9.1,4.19-13.31.13-.25.25-.5.37-.75.96-1.67,1.03-3.71,2.22-5.28,2.26-2.73,2.13-6.41,3.72-9.43.8-1.52,1.66-2.77,3.46-2.61,2.31.21,3.36-1.08,4.08-2.93,1.97-5.07,4.33-9.94,7.07-14.63,1.72-2.94,3.22-5.99,5.04-8.87,1.57-2.49,2.72-2.85,5.51-1.85,1.35.88,1.62,2.38,2.06,3.74.87,2.68,2.32,5.15,2.95,7.92-.09.91-.3,1.83-.06,2.75.29,1.55.82,3,1.78,4.27.67,1.5,1.28,3.02,1.81,4.57.32.94.74,1.91-.12,2.82Z"/>
  <path class="cls-40" d="M175.93,175.47c-.02-.83-.05-1.65-.05-2.48,0-.99-.36-1.76-1.22-2.31-3.22-2.07-6.18-4.52-9.76-6.08-2.58-1.12-4.86-2.9-7.28-4.38,1.31-2.15,3.46-3.68,4.49-6.04-.24-1.02.29-1.75.89-2.48,4.96-6.08,8.85-12.82,12.23-19.88.24-.5.47-1,.85-1.41.45-.49.98-.9,1.68-.77.94.17.65.99.64,1.57-.03.99.25,2.02-.2,2.98-.15,10.97-.78,21.92-1.58,32.86-.17,2.3-.11,4.61-.16,6.91.07.58-.13,1.07-.5,1.5Z"/>
  <path class="cls-36" d="M184.21,147.48c-1.21,4.11-2.44,8.22-3.63,12.34-.35,1.22-.92,2.4-.81,3.72,0,0,.01-.02.01-.02-.49,1.28-.58,2.67-1.17,3.91-.37.91-.74,1.83-1.11,2.74-.13-.43-.45-.91-.36-1.3.66-2.99.15-6.08.79-9.06.1-.45.16-.92.14-1.37-.28-5.9.53-11.76.73-17.64.17-4.96.5-9.92.51-14.89,0-.46.07-.92.16-1.37.47-2.42.63-2.49,3.06-1.77.7.21,1.44.25,2.17.36,1.41.6,1.36,1.91,1.29,3.05-.25,4.29-.31,8.6-.9,12.87-.38,2.8-.9,5.57-.88,8.41Z"/>
  <path class="cls-34" d="M178.61,167.45c.03-1.41.4-2.72,1.17-3.91.05,1.44-.21,2.78-1.17,3.91Z"/>
  <path class="cls-6" d="M309.41,96c-3.11-5.88-6.85-11.33-11.17-16.39-1.31-1.54-2.9-2.5-4.81-3.01-.39-.92-.77-1.83-1.16-2.75,1.5.71,2.98,1.45,4.11,2.73.24.27.53.52.85.7.88.53,1.91,1.11,2.85.88,3.23-.8,6.46,2.62,9.64-.09.76-.65,1.64-.69,2.6-.48,1.46.32,2.79.04,3.6-1.36.68-1.16,1.9-1.41,2.97-1.87,1.68-.73,2.93-1.71,3.51-3.59.51-1.65,1.33-3.23,2.59-4.52,1.1-1.13,1.51-2.46,1.17-4.05-.31-1.41-.14-2.76.93-3.86,1.12.11,1.67.89,1.7,1.85.18,6.34,4.23,9.96,9.19,12.73,2.72,1.52,4.08,3.81,5.24,6.43.77,1.55.59,3.22.6,4.87.54,1.66-.13,3.42.4,5.09.16,1.5.16,2.99,0,4.49-.55,1.63.19,3.38-.43,5.01,0,0,.04.02.04.02-2.52-.75-5.34-.32-7.64-2-.6-.44-1.43-.27-2.15-.07-.99.28-2.01.48-3,.31-2.65-.45-5.26-.23-7.91-.04-2.47.18-4.97.08-7.38.68-1.95.49-3.6.23-5.13-1.07-.34-.29-.81-.44-1.21-.65Z"/>
  <path class="cls-30" d="M343.23,79.36c-2.25-3.14-5.37-5.38-8.61-7.18-4.55-2.53-6.42-6.33-6.91-11.17-.09-.92-.14-1.83-.61-2.66.52-3.21.79-6.46,2.88-9.23.66-.88.72-2.22,1.05-3.35,1.57,1.5,2.16,3.64,3.41,5.35,2.01.49,2.36,2.17,2.77,3.82.02.27-.01.54-.09.8,2.21,4.52,1.05,1.59,2.21,4.77.26.71.81,2.6,1.36,3.09.91.88.77,2.17,1.27,3.2,1.18,3.34,2.13,6.7.92,10.26.07.77.57,1.48.36,2.3Z"/>
  <path class="cls-14" d="M343.8,98.81c.03-1.68-.4-3.4.43-5.01.07,1.69.24,3.38-.43,5.01Z"/>
  <path class="cls-14" d="M344.23,89.32c-.81-1.64-.41-3.38-.4-5.09.65,1.66.49,3.37.4,5.09Z"/>
  <path class="cls-44" d="M88.4,50.14c-.03.13-.06.26-.09.39-.82-.06-1.63-.11-2.44-.17.82-.39,1.68-.3,2.54-.22Z"/>
  <path class="cls-44" d="M95.42,50.25c-.55.21-1.08.13-1.58-.14.39-.04.79-.09,1.18-.13.14.09.27.18.4.28Z"/>
  <path class="cls-47" d="M80.68,51.18c-.48.45-1.05.62-1.7.53.47-.48,1.05-.62,1.7-.53Z"/>
  <path class="cls-47" d="M78.99,51.71c-.49.39-1.04.6-1.67.54.47-.47,1.03-.62,1.67-.54Z"/>
  <path class="cls-44" d="M114.43,57.67c-3.23-2.02-6.57-3.82-10.04-5.37.78-.47,1.07-1.2,1.26-2.05.55-2.52,1.33-4.97,1.69-7.55.23-1.63.72-3.25,1.32-4.78.55-1.42.93-2.76.44-4.28-.42-1.32-.05-2.4,1.37-2.86,2.78-.89,5.03-2.69,7.38-4.3,4.42-3.02,9.21-5.37,13.93-7.85,1.29-.67,2.65-.71,4.02-.83,4.54-.38,8.41-2.53,12.32-4.62,5.55-2.98,11.33-5.28,17.69-5.88,1.36-.13,2.67-.67,4.01-1.03-2.47,2.19-4.97,4.36-7.41,6.59-.74.68-1.35,1.51-2.01,2.27.1.78-.15,1.42-.79,1.89-1.69.94-3.27,2-4.43,3.63-2.16,3.04-5.63,3.33-8.85,3.86-5.19.85-9.79,3.04-14.35,5.52-4.37,2.37-8.99,4.24-13.53,6.26-2.78,1.24-2.95,1.57-1.58,4.27,1.08,2.12,1.38,4.29.8,6.66-.64,2.59-.73,5.28-1.4,7.88-.29,1.13-.66,2.11-1.85,2.56Z"/>
  <path class="cls-44" d="M102.18,51.6c-.59.04-1.13-.08-1.61-.44.58-.01,1.14.06,1.61.44Z"/>
  <path class="cls-45" d="M215.26,78.29c-.61,3.16-1.6,6.24-1.74,9.49-.03.78-.54,1.36-.85,2.01-.21,1.36-.47,2.67-2.25,2.75-.78-.15-1.46-.56-2.36-.5-1.63.1-3.27-.55-4.15-1.83-1.95-2.83-4.99-4.61-6.86-7.49-1.72-2.66-4.53-3.96-7.22-5.3-1.21-.61-2.24-1.21-2.8-2.47,0-4.3-.35-8.63.07-12.89.47-4.76.29-9.5.48-14.24,2.31-.21,3.94,1.07,5.12,2.74,1.78,2.53,4.19,4.36,6.41,6.41.75.69,1.63,1.35,1.87,2.34.58,2.34,2.22,3.74,4.09,4.97.96.63,1.7,1.37,1.91,2.57.19,1.12.87,1.99,1.6,2.85,2.04,2.36,3.59,5.14,6.12,7.07.47.36.49.96.56,1.51Z"/>
  <path class="cls-63" d="M180.51,74.13c-.15,4.94.3,9.91-.64,14.81-1.45-.58-1.25-1.9-1.3-3.06-.11-2.48.01-4.96-.08-7.44-.09-2.38-1.12-3.87-3.31-5.21-2.94-1.79-6.29-3.04-8.73-5.63-.38-.4-.8-.85-1.32-.97-4.64-1.13-8.11-4.66-12.6-6.07-3.56-1.12-6.09-3.24-6.66-7.16.83-5.28,3.04-10.12,4.91-15.07.36-.96,1.02-1.76,2.26-1.62,1.36,1.22,2.07,2.95,3.64,4.1,1.81,1.32,3.63,2.35,5.78,3.06,2.97.98,5.69,2.64,8.24,4.44,1.91,1.34,4,2.29,6.08,3.23,2.53,1.14,3.53,3.11,3.55,5.72.03,4.7,0,9.41.03,14.11,0,.92.1,1.84.15,2.76Z"/>
  <path class="cls-51" d="M153.03,36.72c-2.59,5.3-4.46,10.85-5.97,16.53-.48.72.06,1.74-.72,2.37-4.28,2.91-7.82,6.21-8.99,11.7-.79,3.73-2.03,7.42-3.43,11.01-.63,1.62-1.42,3.02-3.49,2.91-.73-2.07-1.46-4.15-2.18-6.22.08-3.83-.94-7.46-2-11.08-.75-2.55-1.96-4.97-2.12-7.69-.09-2.08.85-3.35,2.75-4.31,3.31-1.67,6.68-3.19,10.34-3.74,2.65-.4,4.11-1.89,5.01-4.16,1.37-3.43,3.08-6.67,5.14-9.75,1.7-2.53,4.98-3.69,7.52-2.53-.62,1.65-1.25,3.3-1.87,4.95Z"/>
  <path class="cls-20" d="M154.9,31.77c-1.53.28-2.88,1.18-4.51,1.18-1.05,0-1.55.89-2.04,1.67-1.56,2.5-2.81,5.16-3.99,7.85-.48,1.09-.95,2.19-1.49,3.26-1.08,2.13-2.43,3.55-5.21,3.76-4.06.31-7.68,2.35-11.31,4.12-1.02.5-1.39,1.41-1.39,2.5-.24.21-.51.26-.81.16-2.3-2.34-3.43-5.25-4.13-8.38.22-1.78,1.25-2.74,2.82-3.69,6.57-3.95,14.23-5.34,20.85-9.14,2.88-1.65,5.29-3.61,6.1-7.01,2.57-4.41,5.83-8.27,9.5-11.81.26-.48.63-.85,1.11-1.11,2.03-.35,3.87-1.61,6.05-1.19-1.37,2.1-3.24,3.84-4.42,6.09-2.05,1.64-2.78,4.16-4.1,6.28-1.1,1.76-2.03,3.63-3.03,5.45Z"/>
  <path class="cls-29" d="M187.03,74.96c2.88.74,5.32,2.43,7.94,3.74,1.55.78,2.31,2.35,3.34,3.61,1.17,1.44,2.32,2.85,3.88,3.87.71.47,1.21,1.12,1.6,1.87.98,1.9,2.53,2.9,4.68,2.7,1.04-.1,1.56.31,1.84,1.21.34,1.25,0,2.35-.71,3.39-1.97,2.89-3.89,5.81-5.66,8.82-.53.9-1.23,1.61-2.37,1.69-3.98-.69-7.37-2.17-9.71-5.8-1.33-2.07-3.58-2.42-5.9-1.33-.23-3.15.83-6.24.42-9.39.19-4.8-.22-9.62.65-14.39Z"/>
  <path class="cls-56" d="M178.17,103.97c-.04,1.01-.08,2.03-.12,3.04.04.13.08.26.12.38.31.79.24,1.6.18,2.42-.27,1.34-.3,2.73-.73,4.04-.35,1.08-.76,2.08-2.1,2.21-.57-.17-1.07-.56-1.13-1.1-.34-2.91-2.26-4.14-4.81-4.98-2.12-.69-3.73-2.19-5.33-3.78-2.74-2.71-6.44-4.23-9.33-6.79-3.79-3.35-8.49-5.11-12.83-7.49-3.01-1.64-5.18-3.75-5.59-7.31,1.29-5.52,3.25-10.85,4.59-16.36.25-1.03.59-2.18,1.96-2.36.82.21,1.15.84,1.37,1.58.84,2.87,2.73,4.74,5.51,5.75,2.97,1.08,5.74,2.45,7.97,4.8,1.42,1.49,3.53,1.92,5.25,3,4.68,2.93,9.04,6.34,13.91,8.96,2.06,1.1,2.26,3.04,2.13,5.01-.19,3.01-.41,6.01-1.03,8.97Z"/>
  <path class="cls-23" d="M178.17,103.97c-.23-2.78.68-5.47.55-8.26-.11-2.34-.93-3.79-3.06-5.05-3.22-1.91-6.54-3.73-9.45-6.18-1.6-1.35-3.48-2.44-5.39-3.31-1.97-.89-3.72-1.96-5.23-3.51-1.38-1.42-3.27-2.02-5.05-2.78-1.59-.68-3.3-1.11-4.59-2.44-1.73-1.79-3.06-3.69-2.71-6.34-.78-.5-1.15-1.27-.97-2.13.67-3.23,1.14-6.55,3.82-8.93.33-.59.66-1.19.98-1.78.13,2.31,1.14,3.94,3.35,4.92,1.42.64,2.85,1.27,4.29,1.86,1.7.7,3.4,1.4,4.82,2.64.14.12.27.28.44.33,4.25,1.3,7.61,4.17,11.39,6.31,2.22,1.26,4.19,2.86,6.58,3.93,1.67.75,1.81,3.07,1.84,4.94.07,3.59.07,7.17.1,10.76,0,5.07-.24,10.12-1.69,15.03Z"/>
  <path class="cls-8" d="M175.4,115.99c1.26-2.03,1.23-4.47,2.13-6.62.63-.67.04-1.62.52-2.32,0,0-.01-.04-.01-.04.33-.39.66-.79,1.2-1.43-.02,5.14.19,10.01-.31,14.86-.35,3.4-.22,6.82-.3,10.23-.03,1.19.18,2.41-.46,3.52-.07-1.24-.14-2.47-.24-4.22-1.45,1.59-1.91,3.1-2.55,4.44-2.89,5.97-6.27,11.62-10.44,16.8-.87,1.08-1.74,2.13-2.84,2.97-2.08-.53-3.84-1.69-5.63-2.79,1.68-2.19,3.4-4.34,5.01-6.57,1.02-1.41,2.24-2.7,2.81-4.4,1.57-5.7,5.03-10.56,7.03-16.07.2-.54.42-1.07.65-1.6.05-.21.14-.41.23-.6.16-.37.32-.75.45-1.13.04-.2.11-.39.18-.57.13-.37.28-.74.39-1.12.03-.2.1-.4.17-.59.13-.39.28-.78.42-1.17.06-.22.16-.41.27-.6.27-.37.59-.68.98-.9.11-.02.22-.05.33-.07Z"/>
  <path class="cls-73" d="M185.96,98.74c1.34-3.19,1.43-3.21,4.5-1.37,1.18.71,2.44,1.3,3.08,2.63,1.1,2.26,3.14,3.22,5.38,3.94.92.3,2.07.25,2.54,1.4.56,1.37.17,2.7-.36,3.94-.91,2.17-1.99,4.26-3.15,6.32-.51.91-1.2,1.59-2.31,1.69-2.6,1-5.23,1.28-7.96.5-.9-.26-1.72-.54-2.28-1.32-.32-5.93.84-11.81.55-17.73Z"/>
  <path class="cls-64" d="M185.4,116.47c1.46.01,2.91.02,4.35.41,2.11.57,4.14-.6,6.25-.39,1.22,1.42.26,2.72-.18,4.08-1.76,5.48-5.34,10.12-7.2,15.56-.56,1.63-.84,3.37-1.76,4.87-1.59,1.88-1.88,4.29-2.66,6.5,0,0,0-.02,0-.02-.94.15-1.12-.41-1-1.14.92-5.87.75-11.82,1.43-17.71.21-1.8.05-3.65.06-5.47.33-2.22.73-4.42.71-6.68Z"/>
  <path class="cls-26" d="M172.59,124.23c-2.09,5.74-4.63,11.25-8.29,16.18.46-2.43-.09-4.22-2.59-5.41-1.97-.94-3.73-2.39-5.29-3.97-1.13-1.14-2.56-1.81-3.9-2.59-2.01-1.17-3.85-2.55-5.44-4.21-1.25-1.31-2.94-1.86-4.36-2.88-2.75-1.99-4.86-4.8-8.07-6.19-.76-.33-1.25-1.06-1.77-1.72-1.66-2.11-2.52-2.35-4.97-1.46-.52.19-1.03.41-1.54.61,2.3-4.65,4.14-9.44,4.77-14.64.07-.53.34-1.04.52-1.56.85-3.27,2.2-6.34,3.68-9.36.5-1.02.72-2.35,2.35-2.1.05,1.93,1.05,3.31,2.61,4.3,2.4,1.54,4.8,3.08,7.48,4.12,2.27.87,4.21,2.25,6.12,3.69,3.16,2.37,6.23,4.87,9.75,6.72.55.29,1.12.74,1.43,1.26,1.42,2.42,3.81,3.4,6.24,4.29,3.32,1.21,3.8,1.79,4.01,5.3.03.46.05.92.07,1.38,0,0,0-.05,0-.05-.59.43-.1,1.22-.56,1.7v-.04c-.58.44-.12,1.22-.54,1.72l.02-.05c-.62.43-.16,1.22-.56,1.72l.02-.06c-.64.41-.15,1.22-.59,1.7v-.04c-.6.4-.07,1.22-.6,1.65Z"/>
  <path class="cls-26" d="M124.82,115.36c.4-.62.8-1.24,1.2-1.86-.03.86-.37,1.52-1.2,1.86Z"/>
  <path class="cls-37" d="M240.81,132.49c1.67.16,3.16,1.15,4.89,1.06,4,1.26,8.1,1.35,12.23.95,1.27-.12,2.55-.22,3.82-.33.64,2.94,1.88,5.8,1.24,8.92-.04.17-.01.38.05.54,1.56,3.95,1.26,8.39,3.19,12.25.69,1.39.49,2.88.52,4.35.02,1.11.02,2.21.02,3.32-.2,0-.39.01-.59.02-4.03-.93-7.94-2.23-11.71-3.94-1.25-.56-2.39-1.39-3.79-1.6-4.54-2.89-9-5.88-12.77-9.77-.57-.59-1.09-1.22-1.64-1.83-1.17-1.49.32-2.77.41-4.17.17-2.8,1.11-5.53,1.74-8.29.27-1.17.94-2.03,2.38-1.49Z"/>
  <path class="cls-55" d="M240.81,132.49c-1.65.66-1.33,2.29-1.57,3.52-.32,1.6-.3,3.26-1.19,4.72-.09.15-.15.34-.17.51-.44,3.34-.5,3.55-1.58,5.19-.38-.21-.75-.42-1.13-.63-5-5.46-8.94-11.62-12.17-18.26-1.09-2.33-2.11-4.69-2.79-7.18.22-1.09-.38-2.32.58-3.29,1.56,1.67,3.14,3.33,4.67,5.02,3.88,4.3,8.55,7.46,13.9,9.65.51.21.98.49,1.47.73Z"/>
  <path class="cls-69" d="M65.04,237.36c-7.39-3.01-14.03-7.2-19.62-12.9-2.94-3-4.5-6.9-5.65-10.9-.53-1.84-.78-3.76-1.16-5.64,2.44,2.24,4.82,4.53,7.32,6.69,1.96,1.69,3.7,3.59,5.55,5.39.93.91,1.99,1.57,3.12,2.23,3.27,1.91,6.37,4,7.61,7.95.77,2.45,1.87,4.8,2.83,7.19Z"/>
  <path class="cls-37" d="M263.39,133.73c-.48.41-1.04.51-1.65.46.48-.39,1.03-.54,1.65-.46Z"/>
  <path class="cls-41" d="M186.44,140.76c3.04-8.15,6.18-16.26,9.56-24.28,1.76-2.85,3.13-5.9,4.38-9,.3-.76.66-1.46,1.08-2.14,1.18-.82,1.6-2.17,2.28-3.32,2.06-3.44,4.31-6.75,6.56-10.06.79-.73,1.58-1.45,2.36-2.18.57.66.72,1.46.71,2.28-.03,3.36.41,6.68.79,10.01-1.83-.75-2.99.12-3.83,1.64-4.19,7.54-8.84,14.84-11.93,22.96-.26.69-.6,1.34-.93,2-1.27,2.54-1.27,2.58-4.19,2.27-1.51-.16-2.44.34-2.94,1.82-.59,1.74-1.34,3.41-1.8,5.2-.43,1.67-.83,3.41-2.26,4.62-.23-.64-.24-1.25.16-1.83Z"/>
  <path class="cls-43" d="M220.78,117.09c.45,1.21.31,2.31-.58,3.29-.89-1.35-1.26-2.88-1.54-4.44,1.27-.72,1.53.47,2.09,1.1l.04.06Z"/>
  <path class="cls-36" d="M186.44,140.76c-.05.61-.1,1.22-.16,1.83-1,1.51-.99,3.44-2.09,4.9.12-2.45.86-4.7,2.24-6.74Z"/>
  <path class="cls-55" d="M220.74,117.03c-.69-.38-1.26-.99-2.09-1.1-.15-.76-.72-1.53.04-2.28.9,1,1.67,2.07,2.05,3.39Z"/>
  <path class="cls-27" d="M159.29,16.25c-.12.34-.15.76-.37,1.02-3.01,3.46-5.35,7.4-7.94,11.17-1.62,2.34-3.48,4.14-6.65,4.18-2.78.04-4.78,2.22-7.23,3.23-4.56,1.89-9.33,3.27-13.65,5.79-3.58,2.09-3.75,2.07-2.38,6.18.8,2.89,2.8,5.3,3.34,8.3-.49,3.11-2.81,5.4-5.46,5.39-1.67-1.08-3.04-2.52-4.51-3.84,1.12-3.98,1.17-8.19,2.46-12.14.38-1.17-.12-2.19-.56-3.19-.4-.92-1.03-1.74-1.51-2.63-1.07-2-.81-3.14,1.28-3.92,2.52-.93,4.91-2.11,7.33-3.24,3.4-1.59,6.81-3.13,10.13-4.94,4.43-2.41,9.19-4.23,14.33-4.73,1.85-.18,3.56-.86,5.21-1.72.67-.35,1.31-.74,1.71-1.36,1.1-1.7,2.73-2.7,4.48-3.56Z"/>
  <path class="cls-62" d="M137.69,84.93c-1.37,2.96-2.71,5.94-4.13,8.89-.46.96-.81,2.06-1.9,2.58.36-5.11.13-10.18-1.23-15.15,2.28-2.12,2.96-5.03,3.74-7.85,1.03-3.74,2.34-7.38,3.58-11.04.75-2.23,1.78-4.26,4.46-4.81.57-.11,1.06-.7,1.53-1.13.68-.63,1.32-1.3,2.32-1.38-.95,3.68-2.36,7.25-2.85,11.05-1.42,4.79-2.84,9.59-4.26,14.38-.44,1.48-.85,2.97-1.28,4.46Z"/>
  <path class="cls-61" d="M118.94,61.51c2.22-1.39,3.31-3.93,5.46-5.39.19,0,.37,0,.56,0,1.6,4.59,3.37,9.13,4.17,13.97.3,1.77.47,3.48-.88,4.93-1.17-2.07-2.35-4.13-3.52-6.2-1.55-2.74-3.92-4.83-5.79-7.3Z"/>
  <path class="cls-61" d="M121.06,47.82c-.57-.34-.93-.87-1.29-1.41-1.78-2.7-1.47-3.69,1.39-5.05,1.99-.95,3.94-1.99,5.86-3.08.97-.55,1.97-1.01,3.04-1.29,3.68-.94,7.16-2.34,10.33-4.46,1.12-.75,2.39-1.17,3.63-1.18,2.77-.04,4.95-1.21,6.96-2.92-1.44,3.73-3.75,6.53-7.54,8.27-4.25,1.95-8.51,3.86-12.96,5.26-3.02.95-5.47,2.99-8.41,4.05-.79.28-.97,1.04-1.02,1.81Z"/>
  <path class="cls-74" d="M178.06,107.05c.2.86.11,1.65-.52,2.32-.04-.82-.1-1.65.52-2.32Z"/>
  <path class="cls-56" d="M172.59,124.23c-.03-.64.11-1.21.61-1.65.13.67-.18,1.18-.61,1.65Z"/>
  <path class="cls-56" d="M174.31,119.31c-.09-.66.04-1.25.55-1.72.13.67-.02,1.26-.55,1.72Z"/>
  <path class="cls-56" d="M173.76,120.98c-.09-.67.05-1.26.56-1.72.13.68-.02,1.26-.56,1.72Z"/>
  <path class="cls-56" d="M173.19,122.62c-.07-.66.08-1.24.59-1.7.12.68-.1,1.24-.59,1.7Z"/>
  <path class="cls-56" d="M174.84,117.63c-.08-.65.05-1.24.56-1.7.13.67-.02,1.25-.56,1.7Z"/>
</svg>